#!OML:ASF H:\Terrain\Patient Classification 1\Animal2\Wednesday\Animal2.ASF
:FULLY-SPECIFIED
:DEGREES
1
root 27.3274 17.2671 -30.7342 34.1895 -30.694 5.98197
lowerback 21.683 -1.68763 1.32793
upperback 0.704156 -1.72731 1.50353
thorax -11.3979 -0.832781 1.44893
lowerneck 2.40373 5.52001 14.529
upperneck 12.1614 8.79054 -16.0356
head 4.52975 4.32417 -7.13515
rclavicle -6.04305e-014 -9.93923e-015
rhumerus -39.8113 -6.35215 -73.3593
rradius 49.9542
rwrist -3.71198
rhand -16.9625 16.855
rfingers 7.12502
rthumb 9.27155 -12.9212
lclavicle -6.04305e-014 -9.93923e-015
lhumerus -46.902 -1.55347 81.1712
lradius 58.1518
lwrist 19.1164
lhand -19.1597 28.4416
lfingers 7.12502
lthumb 7.15097 58.3008
rfemur -59.6585 4.42161 -1.71718
rtibia 43.8118
rfoot -20.0981 -14.5967
rtoes -18.0225
lfemur -61.6359 -2.17219 -22.5108
ltibia 39.1389
lfoot -13.812 -4.75768
ltoes -26.4664
2
root 27.3078 17.2973 -30.6867 34.0046 -30.8812 5.73741
lowerback 21.286 -1.67408 1.17603
upperback 0.627813 -1.75518 1.50131
thorax -11.2581 -0.83902 1.52987
lowerneck 2.01662 5.52051 14.8152
upperneck 11.9723 8.75711 -16.2312
head 4.55478 4.30093 -7.23809
rclavicle 1.82882e-014 7.63333e-014
rhumerus -40.0936 -6.68957 -73.1384
rradius 49.1877
rwrist -3.91693
rhand -16.8657 16.7566
rfingers 7.12502
rthumb 9.36496 -13.0154
lclavicle 1.82882e-014 7.63333e-014
lhumerus -47.0758 -1.35637 80.9326
lradius 56.1237
lwrist 18.0162
lhand -18.3462 28.6205
lfingers 7.12502
lthumb 7.93617 58.4515
rfemur -59.0047 4.57323 -1.40533
rtibia 43.3644
rfoot -19.9889 -14.2711
rtoes -17.4869
lfemur -61.0274 -2.00533 -22.3669
ltibia 38.9756
lfoot -13.3265 -5.06096
ltoes -24.6432
3
root 27.2896 17.3199 -30.6492 34.0298 -31.0435 5.50623
lowerback 20.769 -1.84052 0.939248
upperback 0.403366 -2.02226 1.6273
thorax -11.2059 -0.946645 1.87252
lowerneck 1.93011 5.67323 14.4543
upperneck 11.7685 8.93065 -16.1302
head 4.5171 4.37244 -7.12514
rclavicle -5.76476e-014 -3.10104e-014
rhumerus -40.2987 -6.38468 -73.0199
rradius 48.4049
rwrist -4.05766
rhand -16.9318 16.3897
rfingers 7.12502
rthumb 9.30114 -13.3851
lclavicle -5.76476e-014 -3.10104e-014
lhumerus -47.5884 -0.405619 80.5302
lradius 54.42
lwrist 17.3026
lhand -18.0664 28.5271
lfingers 7.12502
lthumb 8.20628 58.3478
rfemur -58.6683 4.64409 -1.10965
rtibia 42.9945
rfoot -19.5921 -14.1643
rtoes -17.0558
lfemur -60.6906 -1.85899 -22.1926
ltibia 38.7934
lfoot -13.0544 -5.11996
ltoes -24.4834
4
root 27.2675 17.3499 -30.6101 33.8124 -31.2372 5.3299
lowerback 20.5364 -1.91754 0.708743
upperback 0.192729 -2.17144 1.69286
thorax -11.2989 -0.999804 2.1185
lowerneck 1.9396 5.73571 14.3883
upperneck 11.4999 9.006 -16.23
head 4.4484 4.40725 -7.13965
rclavicle -7.59357e-014 2.06736e-014
rhumerus -40.6288 -6.46982 -72.7563
rradius 47.5571
rwrist -4.08931
rhand -16.9051 16.4221
rfingers 7.12502
rthumb 9.3269 -13.3516
lclavicle -7.59357e-014 2.06736e-014
lhumerus -48.0469 0.334296 80.0833
lradius 52.88
lwrist 16.841
lhand -18.4845 28.4778
lfingers 7.12502
lthumb 7.80275 58.3138
rfemur -58.0896 4.82001 -0.842744
rtibia 42.6106
rfoot -19.2671 -13.9394
rtoes -16.3685
lfemur -60.0644 -1.696 -22.0642
ltibia 38.6042
lfoot -12.7624 -5.06058
ltoes -23.537
5
root 27.2388 17.3885 -30.5638 33.38 -31.3016 5.21598
lowerback 20.3706 -1.97046 0.585219
upperback 0.042652 -2.27293 1.675
thorax -11.3684 -1.03954 2.19722
lowerneck 2.04185 5.61568 14.719
upperneck 11.1703 8.85625 -16.5399
head 4.33486 4.34633 -7.31062
rclavicle 4.77083e-015 -1.98785e-014
rhumerus -41.1192 -7.03712 -72.4044
rradius 46.8253
rwrist -3.964
rhand -16.6845 16.5375
rfingers 7.12502
rthumb 9.53981 -13.2266
lclavicle 4.77083e-015 -1.98785e-014
lhumerus -48.3077 0.466189 79.6845
lradius 51.143
lwrist 16.6793
lhand -18.5154 28.7456
lfingers 7.12502
lthumb 7.77293 58.5827
rfemur -57.1566 5.05454 -0.596331
rtibia 42.1534
rfoot -19.2036 -13.6639
rtoes -15.6927
lfemur -59.1114 -1.4822 -22.069
ltibia 38.2427
lfoot -12.216 -5.43946
ltoes -20.9883
6
root 27.215 17.4171 -30.5241 33.5166 -31.2452 4.87024
lowerback 19.7108 -2.05317 0.71133
upperback -0.17992 -2.35724 1.71025
thorax -11.2486 -1.0868 2.1672
lowerneck 1.867 5.46287 14.9499
upperneck 11.0186 8.62953 -16.6693
head 4.29686 4.23514 -7.40203
rclavicle -1.14898e-013 3.73715e-014
rhumerus -41.5391 -7.73033 -72.0473
rradius 46.2454
rwrist -3.73553
rhand -16.7348 16.3458
rfingers 7.12502
rthumb 9.49125 -13.4205
lclavicle -1.14898e-013 3.73715e-014
lhumerus -48.4535 0.440122 79.3853
lradius 49.3013
lwrist 16.5982
lhand -18.4353 28.5911
lfingers 7.12502
lthumb 7.85023 58.4253
rfemur -56.7559 5.16409 -0.167475
rtibia 41.6912
rfoot -18.6383 -13.7784
rtoes -16.4285
lfemur -58.8147 -1.26106 -21.8204
ltibia 38.0414
lfoot -11.8743 -5.7343
ltoes -21.0567
